<svg width="24" height="24" viewBox="0 0 24 24" fill="none" xmlns="http://www.w3.org/2000/svg">
<path d="M17.811 14.296C17.8129 14.8004 18.0144 15.2835 18.3717 15.6396C18.7289 15.9957 19.2126 16.1957 19.717 16.196C19.717 19.238 18.955 19.996 15.917 19.996H8.3C5.258 19.996 4.5 19.234 4.5 16.196V15.821C5.00485 15.8189 5.48843 15.6174 5.84542 15.2604C6.20241 14.9034 6.40389 14.4198 6.406 13.915C6.40416 13.41 6.20279 12.9261 5.84577 12.5689C5.48875 12.2117 5.00503 12.0101 4.5 12.008V11.631C4.508 8.59299 5.262 7.83099 8.3 7.83099H15.9C18.942 7.83099 19.7 8.59299 19.7 11.631V12.393C19.1975 12.3959 18.7166 12.5978 18.3625 12.9544C18.0085 13.3111 17.8102 13.7935 17.811 14.296Z" stroke="black" stroke-width="1.5" stroke-linecap="round" stroke-linejoin="round"/>
<path d="M15.621 7.83101H8.24799L10.625 5.45401C12.564 3.51501 13.537 3.51501 15.476 5.45401L15.963 5.94101C15.7183 6.18246 15.5541 6.49359 15.4929 6.83188C15.4317 7.17017 15.4764 7.51911 15.621 7.83101Z" stroke="black" stroke-width="1.5" stroke-linecap="round" stroke-linejoin="round"/>
<path d="M10.485 7.83099V19.998" stroke="black" stroke-width="1.5" stroke-linecap="round" stroke-linejoin="round" stroke-dasharray="5 5"/>
</svg>
